0
SECTION
2
HEADER
9
$INSUNITS
70
4
9
$ACADVER
1
AC1014
9
$HANDSEED
5
FFFF
0
ENDSEC
0
SECTION
2
TABLES
0
TABLE
2
VPORT
5
8
100
AcDbSymbolTable
0
ENDTAB
0
TABLE
2
LTYPE
5
5
100
AcDbSymbolTable
0
LTYPE
5
14
100
AcDbSymbolTableRecord
100
AcDbLinetypeTableRecord
2
BYBLOCK
70
0
0
LTYPE
5
15
100
AcDbSymbolTableRecord
100
AcDbLinetypeTableRecord
2
BYLAYER
70
0
0
LTYPE
5
16
100
AcDbSymbolTableRecord
100
AcDbLinetypeTableRecord
2
DASHED
70
0
3
Dashed __ __ __ __ __ __ __ __ __ __ __ __ __ _
72
65
73
2
40
0.75
49
0.5
74
0
49
-0.25
74
0
0
ENDTAB
0
TABLE
2
LAYER
5
2
100
AcDbSymbolTable
70
2
0
LAYER
5
50
100
AcDbSymbolTableRecord
100
AcDbLayerTableRecord
2
0
70
0
62
7
6
CONTINUOUS
0
ENDTAB
0
TABLE
2
STYLE
5
3
100
AcDbSymbolTable
70
1
0
STYLE
5
11
100
AcDbSymbolTableRecord
100
AcDbTextStyleTableRecord
2
STANDARD
70
0
0
ENDTAB
0
TABLE
2
VIEW
5
6
100
AcDbSymbolTable
70
0
0
ENDTAB
0
TABLE
2
UCS
5
7
100
AcDbSymbolTable
70
0
0
ENDTAB
0
TABLE
2
APPID
5
9
100
AcDbSymbolTable
70
2
0
APPID
5
12
100
AcDbSymbolTableRecord
100
AcDbRegAppTableRecord
2
ACAD
70
0
0
ENDTAB
0
TABLE
2
DIMSTYLE
5
A
100
AcDbSymbolTable
70
1
0
ENDTAB
0
TABLE
2
BLOCK_RECORD
5
1
100
AcDbSymbolTable
70
1
0
BLOCK_RECORD
5
1F
100
AcDbSymbolTableRecord
100
AcDbBlockTableRecord
2
*MODEL_SPACE
0
BLOCK_RECORD
5
1B
100
AcDbSymbolTableRecord
100
AcDbBlockTableRecord
2
*PAPER_SPACE
0
ENDTAB
0
ENDSEC
0
SECTION
2
BLOCKS
0
BLOCK
5
20
100
AcDbEntity
100
AcDbBlockBegin
2
*MODEL_SPACE
0
ENDBLK
5
21
100
AcDbEntity
100
AcDbBlockEnd
0
BLOCK
5
1C
100
AcDbEntity
100
AcDbBlockBegin
2
*PAPER_SPACE
0
ENDBLK
5
1D
100
AcDbEntity
100
AcDbBlockEnd
0
ENDSEC
0
SECTION
2
ENTITIES
0
ARC
5
100
100
AcDbEntity
8
0
100
AcDbCircle
10
439.49996872615827
20
90.499985430168394
30
3.709930922588942e-06
40
0.50000000000000888
210
0
220
-8.5809590544270874e-08
230
0.99999999999999645
100
AcDbArc
50
270
51
359.99999236361634
0
LINE
5
101
100
AcDbEntity
8
0
100
AcDbLine
10
439.99996872615827
20
90.499985430167698
30
1.1542249620521972e-05
11
439.99996872615588
21
519.49990786291733
31
4.8354557249385977e-05
0
ARC
5
102
100
AcDbEntity
8
0
100
AcDbCircle
10
439.49996872615839
20
519.49990786291733
30
-1.0211150246023181e-05
40
0.49999999999997602
210
-1.331038901319978e-07
220
0
230
0.99999999999999112
100
AcDbArc
50
0
51
89.999999999986969
0
LINE
5
103
100
AcDbEntity
8
0
100
AcDbLine
10
439.49996872615594
20
519.99990786291721
30
4.8330910098481894e-05
11
-9.5000496558331076
21
519.99990786291983
31
-1.1432792931254099e-05
0
ARC
5
104
100
AcDbEntity
8
0
100
AcDbCircle
10
-9.5000496558331733
20
519.4999078629171
30
-5.6053691283810976e-05
40
0.49999999999997347
210
-1.1432113271111496e-20
220
-8.5809435113053515e-08
230
0.99999999999999645
100
AcDbArc
50
89.999999999992468
51
179.99999236361637
0
LINE
5
105
100
AcDbEntity
8
0
100
AcDbLine
10
-10.00004965583317
20
519.49990786291994
30
-1.1542249654938885e-05
11
-10.000049655830752
21
90.499985430170256
31
-4.8354557312668689e-05
0
ARC
5
106
100
AcDbEntity
8
0
100
AcDbCircle
10
-9.5000496558370653
20
90.499985430170398
30
-4.7023511180239217e-05
40
0.50000000000003486
210
-1.3310395230447153e-07
220
-3.3101616243813372e-20
230
0.99999999999999123
100
AcDbArc
50
180
51
270.00000000000307
0
LINE
5
107
100
AcDbEntity
8
0
100
AcDbLine
10
-9.5000496558306899
20
89.999985430170398
30
-4.8330910132898808e-05
11
439.49996872615827
21
89.999985430167726
31
1.1432792821342019e-05
0
CIRCLE
5
108
100
AcDbEntity
8
0
100
AcDbCircle
10
429.99996912547039
20
509.99990812034343
30
-5.4789277273526296e-05
40
3.0000000000000693
210
-1.3310401007655072e-07
220
-8.5809590295801171e-08
230
0.99999999999998745
0
CIRCLE
5
109
100
AcDbEntity
8
0
100
AcDbCircle
10
-4.9256522560406524e-05
20
509.99990812034588
30
-5.4789277274101215e-05
40
2.9999999999999982
210
-1.3310401007655072e-07
220
-8.5809590295801171e-08
230
0.99999999999998745
0
CIRCLE
5
110
100
AcDbEntity
8
0
100
AcDbCircle
10
-4.9256524956385664e-05
20
99.999985687594716
30
-5.4789277274060706e-05
40
3.0000000000000226
210
-1.3310401007655072e-07
220
-8.5809590295801171e-08
230
0.99999999999998745
0
CIRCLE
5
111
100
AcDbEntity
8
0
100
AcDbCircle
10
429.99996912546794
20
99.999985687592172
30
-5.4789277274595977e-05
40
2.9999999999999982
210
-1.3310401007655072e-07
220
-8.5809590295801171e-08
230
0.99999999999998745
0
ENDSEC
0
SECTION
2
OBJECTS
0
DICTIONARY
5
C
100
AcDbDictionary
3
ACAD_GROUP
350
D
3
ACAD_MLINESTYLE
350
17
0
DICTIONARY
5
D
100
AcDbDictionary
0
DICTIONARY
5
1A
330
C
100
AcDbDictionary
0
DICTIONARY
5
17
100
AcDbDictionary
0
ENDSEC
0
EOF
