0
SECTION
2
HEADER
9
$INSUNITS
70
4
9
$ACADVER
1
AC1014
9
$HANDSEED
5
FFFF
0
ENDSEC
0
SECTION
2
TABLES
0
TABLE
2
VPORT
5
8
100
AcDbSymbolTable
0
ENDTAB
0
TABLE
2
LTYPE
5
5
100
AcDbSymbolTable
0
LTYPE
5
14
100
AcDbSymbolTableRecord
100
AcDbLinetypeTableRecord
2
BYBLOCK
70
0
0
LTYPE
5
15
100
AcDbSymbolTableRecord
100
AcDbLinetypeTableRecord
2
BYLAYER
70
0
0
LTYPE
5
16
100
AcDbSymbolTableRecord
100
AcDbLinetypeTableRecord
2
DASHED
70
0
3
Dashed __ __ __ __ __ __ __ __ __ __ __ __ __ _
72
65
73
2
40
0.75
49
0.5
74
0
49
-0.25
74
0
0
ENDTAB
0
TABLE
2
LAYER
5
2
100
AcDbSymbolTable
70
2
0
LAYER
5
50
100
AcDbSymbolTableRecord
100
AcDbLayerTableRecord
2
0
70
0
62
7
6
CONTINUOUS
0
ENDTAB
0
TABLE
2
STYLE
5
3
100
AcDbSymbolTable
70
1
0
STYLE
5
11
100
AcDbSymbolTableRecord
100
AcDbTextStyleTableRecord
2
STANDARD
70
0
0
ENDTAB
0
TABLE
2
VIEW
5
6
100
AcDbSymbolTable
70
0
0
ENDTAB
0
TABLE
2
UCS
5
7
100
AcDbSymbolTable
70
0
0
ENDTAB
0
TABLE
2
APPID
5
9
100
AcDbSymbolTable
70
2
0
APPID
5
12
100
AcDbSymbolTableRecord
100
AcDbRegAppTableRecord
2
ACAD
70
0
0
ENDTAB
0
TABLE
2
DIMSTYLE
5
A
100
AcDbSymbolTable
70
1
0
ENDTAB
0
TABLE
2
BLOCK_RECORD
5
1
100
AcDbSymbolTable
70
1
0
BLOCK_RECORD
5
1F
100
AcDbSymbolTableRecord
100
AcDbBlockTableRecord
2
*MODEL_SPACE
0
BLOCK_RECORD
5
1B
100
AcDbSymbolTableRecord
100
AcDbBlockTableRecord
2
*PAPER_SPACE
0
ENDTAB
0
ENDSEC
0
SECTION
2
BLOCKS
0
BLOCK
5
20
100
AcDbEntity
100
AcDbBlockBegin
2
*MODEL_SPACE
0
ENDBLK
5
21
100
AcDbEntity
100
AcDbBlockEnd
0
BLOCK
5
1C
100
AcDbEntity
100
AcDbBlockBegin
2
*PAPER_SPACE
0
ENDBLK
5
1D
100
AcDbEntity
100
AcDbBlockEnd
0
ENDSEC
0
SECTION
2
ENTITIES
0
ARC
5
100
100
AcDbEntity
8
0
100
AcDbCircle
10
172.50004197050612
20
439.5000541121608
30
-2.3171895589071215e-05
40
0.49999999999997347
210
8.5809590544276962e-08
220
0
230
0.99999999999999645
100
AcDbArc
50
0
51
90
0
LINE
5
101
100
AcDbEntity
8
0
100
AcDbLine
10
172.50004197050345
20
440.00005411216074
30
-3.8040781698001069e-05
11
-12.499824808046185
21
440.00005411216262
31
-2.2166018878166938e-05
0
ARC
5
102
100
AcDbEntity
8
0
100
AcDbCircle
10
-12.499824808046185
20
439.50005411216171
30
3.6554750285235039e-05
40
0.50000000000004707
210
0
220
1.3345627714044092e-07
230
0.99999999999999112
100
AcDbArc
50
90
51
180.00000482967309
0
LINE
5
103
100
AcDbEntity
8
0
100
AcDbLine
10
-12.999824808046156
20
439.50005411216262
30
-2.2056385944324575e-05
11
-12.999824808046228
21
-9.4999642698260676
31
3.7865484285859452e-05
0
ARC
5
104
100
AcDbEntity
8
0
100
AcDbCircle
10
-12.499824808049386
20
-9.4999642698260551
30
3.6749974641933664e-05
40
0.50000000000004441
210
8.5809590544264773e-08
220
2.6674979283649684e-21
230
0.99999999999999645
100
AcDbArc
50
180
51
269.99999999999937
0
LINE
5
105
100
AcDbEntity
8
0
100
AcDbLine
10
-12.499824808046185
20
-9.999964269826048
30
3.7889307629157543e-05
11
172.5000419705035
21
-9.9999642698280731
31
2.2014544809323411e-05
0
ARC
5
106
100
AcDbEntity
8
0
100
AcDbCircle
10
172.50004197050345
20
-9.4999642698309241
30
2.0679986806331137e-05
40
0.49999999999999933
210
-1.8965277652747412e-20
220
1.3345627714045368e-07
230
0.99999999999999123
100
AcDbArc
50
-89.999999999993491
51
4.8296730789029342e-06
0
LINE
5
107
100
AcDbEntity
8
0
100
AcDbLine
10
173.00004197050342
20
-9.4999642698280837
30
2.1904911875481048e-05
11
173.00004197050342
21
439.50005411216074
31
-3.8016958354702979e-05
0
CIRCLE
5
108
100
AcDbEntity
8
0
100
AcDbCircle
10
-159.99999999999642
20
6.9961890105522671e-05
30
-3.5482144766442896e-05
40
3.0000000000000338
210
-8.5809590544272423e-08
220
-1.3310401003607853e-07
230
-0.99999999999998745
0
CIRCLE
5
109
100
AcDbEntity
8
0
100
AcDbCircle
10
160.00000110310441
20
430.0000699618904
30
3.5330670543566699e-05
40
3.0000000000000338
210
8.5809590544272423e-08
220
1.3310401003607856e-07
230
0.99999999999998745
0
CIRCLE
5
110
100
AcDbEntity
8
0
100
AcDbCircle
10
1.1031048396658788e-06
20
430.00006921302975
30
3.5330670543810326e-05
40
3.0000000000000244
210
8.5809590544272423e-08
220
1.3310401003607856e-07
230
0.99999999999998745
0
CIRCLE
5
111
100
AcDbEntity
8
0
100
AcDbCircle
10
3.0447075235384026e-12
20
6.9213029436984415e-05
30
-3.548214476668653e-05
40
3.0000000000000271
210
-8.5809590544272423e-08
220
-1.3310401003607853e-07
230
-0.99999999999998745
0
ENDSEC
0
SECTION
2
OBJECTS
0
DICTIONARY
5
C
100
AcDbDictionary
3
ACAD_GROUP
350
D
3
ACAD_MLINESTYLE
350
17
0
DICTIONARY
5
D
100
AcDbDictionary
0
DICTIONARY
5
1A
330
C
100
AcDbDictionary
0
DICTIONARY
5
17
100
AcDbDictionary
0
ENDSEC
0
EOF
